<?xml version="1.0" encoding="utf-8"?>
<!-- Generator: Adobe Illustrator 27.0.0, SVG Export Plug-In . SVG Version: 6.00 Build 0)  -->
<svg version="1.1" id="图层_1" xmlns="http://www.w3.org/2000/svg" xmlns:xlink="http://www.w3.org/1999/xlink" x="0px" y="0px"
	 viewBox="0 0 768 426.5" style="enable-background:new 0 0 768 426.5;" xml:space="preserve">
<style type="text/css">
	.st0{fill:url(#SVGID_1_);}
	.st1{fill:url(#SVGID_00000031908692303372544370000018113848768636211629_);}
	.st2{fill:#FFE133;}
</style>
<g>
	
		<image style="overflow:visible;" width="840" height="487" xlink:href="81523AB6F9804441.png"  transform="matrix(1 0 0 1 -28 -19.5)">
	</image>
</g>
<g>
	<g>
		
			<linearGradient id="SVGID_1_" gradientUnits="userSpaceOnUse" x1="384" y1="638.4709" x2="384" y2="351.5709" gradientTransform="matrix(1 0 0 1 0 -217.6709)">
			<stop  offset="0" style="stop-color:#E99C01"/>
			<stop  offset="1" style="stop-color:#D5B11D"/>
		</linearGradient>
		<path class="st0" d="M70.6,396.5v22.7c-17.2-2.7-30.9-7.5-41.2-14.2c-9.3-6.2-16.5-13.8-21.7-22.8c-5.1-9-7.7-18.6-7.7-28.9
			c0-12.5,4.3-23.2,12.9-32.1s18.8-13.4,30.8-13.4c11.4,0,21.1,4,29.1,12s12,17.7,12,28.9c0,8.8-3,16.9-8.9,24.5
			c-4,5.1-9.7,9.3-17.3,12.6c-2.5,1.2-3.8,2.2-3.9,2.9c-0.1,0.7,0.4,1.5,1.7,2.6c1.3,1,2.9,2,4.8,2.8
			C63.4,394.9,66.5,395.7,70.6,396.5z M102.5,367.9V173.2c0-8.5-2.5-13.3-7.4-14.4l-8-2.1c-6.6-1.6-9.9-5.4-9.9-11.3
			c0-3.7,1.5-6.5,4.6-8.3c3.1-1.9,7.6-2.8,13.7-2.8l6.8-0.2h91.6l5.6-0.2l7.4,0.8c5.4,1.5,8,4.9,8,10.1c0,5.5-2.7,9.2-8.2,11.1
			l-6.6,2.1c-4.1,1.4-6.2,5.9-6.2,13.6v172.1c0,25.1-8.2,44.3-24.7,57.4c-7.8,6.2-17.8,11-29.8,14.5c-12.1,3.5-24.8,5.2-38.3,5.2
			c-2.3,0-6.3-0.1-11.9-0.4v-23.9c1-0.7,1.6-1.2,2.1-1.4c2.7-2.1,4.7-3.7,5.9-5c1.2-1.3,2.2-2.9,3-4.8
			C101.7,380.7,102.5,374.9,102.5,367.9z M355.5,415h-91.8h-5.4c-4.9,0-8.7-0.9-11.4-2.8s-4-4.5-4-7.9c0-5.6,2.7-9.3,8.2-11.1
			c4.5-1.5,7.2-2.4,7.9-2.8c0.8-0.3,1.5-1.1,2.4-2.4c1.6-2.2,2.5-5.7,2.5-10.5v-206c0-4.8-0.8-8.3-2.5-10.5c-0.8-1.2-1.6-2-2.4-2.4
			c-0.8-0.3-3.4-1.3-7.9-2.8c-5.5-1.8-8.2-5.5-8.2-11.1c0-3.4,1.3-6.1,4-7.9c2.7-1.9,6.5-2.8,11.4-2.8h5.4h91.8h5.4
			c4.9,0,8.7,0.9,11.4,2.8c2.7,1.9,4,4.5,4,7.9c0,5.6-2.7,9.3-8.2,11.1c-4.5,1.5-7.2,2.4-7.9,2.8c-0.8,0.3-1.5,1.1-2.4,2.4
			c-1.6,2.2-2.5,5.7-2.5,10.5v206c0,4.8,0.8,8.3,2.5,10.5c0.8,1.2,1.6,2,2.4,2.4c0.8,0.3,3.4,1.3,7.9,2.8c5.5,1.8,8.2,5.5,8.2,11.1
			c0,3.4-1.3,6.1-4,7.9c-2.7,1.9-6.5,2.8-11.4,2.8H355.5z M522.4,415h-91.6h-5.4c-4.9,0-8.7-0.9-11.4-2.8c-2.7-1.9-4-4.5-4-7.9
			c0-5.6,2.7-9.3,8.2-11.1c4.5-1.5,7.2-2.4,7.9-2.8c0.8-0.3,1.5-1.1,2.4-2.4c1.6-2.2,2.5-5.7,2.5-10.5v-206c0-4.8-0.8-8.3-2.5-10.5
			c-0.8-1.2-1.6-2-2.4-2.4c-0.8-0.3-3.4-1.3-7.9-2.8c-5.5-1.8-8.2-5.5-8.2-11.1c0-3.4,1.3-6.1,4-7.9s6.5-2.8,11.4-2.8h5.4h91.8h7
			c6,0,10.4,0.8,13,2.5c3.6,2.2,5.4,5.1,5.4,8.6c0,6-3.3,9.8-9.9,11.3c-5.4,1.2-8.5,2.1-9.5,2.5s-2,1.2-3.1,2.5
			c-2.1,2.5-3.1,6.3-3.1,11.5L522.4,415L522.4,415z M539.1,415v-23.1c6.7-1.2,12-2.6,16-4.1c3.9-1.5,7.6-3.7,11.2-6.6
			c5.8-4.5,11-10.8,15.9-18.7c4.8-8,8.7-16.8,11.7-26.6c2.2-7.5,4.2-12.5,6.1-14.9c1.9-2.4,4.6-3.6,8.1-3.6c3.8,0,6.7,1.6,8.4,4.7
			c0.8,1.5,1.2,4.5,1.2,9.1V415H539.1z M747.2,415h-91.8H650c-4.9,0-8.7-0.9-11.4-2.8s-4-4.5-4-7.9c0-5.6,2.7-9.3,8.2-11.1
			c4.5-1.5,7.2-2.4,7.9-2.8c0.8-0.3,1.5-1.1,2.4-2.4c1.6-2.2,2.5-5.7,2.5-10.5v-206c0-4.8-0.8-8.3-2.5-10.5c-0.8-1.2-1.6-2-2.4-2.4
			c-0.8-0.3-3.4-1.3-7.9-2.8c-5.5-1.8-8.2-5.5-8.2-11.1c0-3.4,1.3-6.1,4-7.9c2.7-1.9,6.5-2.8,11.4-2.8h5.4h91.8h5.4
			c4.9,0,8.7,0.9,11.4,2.8c2.7,1.9,4,4.5,4,7.9c0,5.6-2.7,9.3-8.2,11.1c-4.5,1.5-7.2,2.4-7.9,2.8c-0.8,0.3-1.5,1.1-2.4,2.4
			c-1.6,2.2-2.5,5.7-2.5,10.5v206c0,4.8,0.8,8.3,2.5,10.5c0.8,1.2,1.6,2,2.4,2.4c0.8,0.3,3.4,1.3,7.9,2.8c5.5,1.8,8.2,5.5,8.2,11.1
			c0,3.4-1.3,6.1-4,7.9c-2.7,1.9-6.5,2.8-11.4,2.8H747.2z"/>
	</g>
	
		<linearGradient id="SVGID_00000097483593603597234180000018193872488752533382_" gradientUnits="userSpaceOnUse" x1="145.9" y1="390.5" x2="618.9" y2="390.5" gradientTransform="matrix(1 0 0 -1 0 428)">
		<stop  offset="0" style="stop-color:#E99C01"/>
		<stop  offset="1" style="stop-color:#D5B11D"/>
	</linearGradient>
	<path style="fill:url(#SVGID_00000097483593603597234180000018193872488752533382_);" d="M215.3,24.8L199,67.9h-3.9l-14.5-37.4
		L166,67.9h-3.8l-16.3-43.1h4l14.4,38.5L179,24.8h3.6L197,63.2l14.5-38.4H215.3z M260.1,47.4H223c0.4,10.2,7.9,17.2,18.2,17.2
		c5.4,0,10.5-2,13.8-6l2.4,2.7c-3.8,4.6-9.7,7-16.3,7c-13,0-22.2-9.1-22.2-21.9s8.8-21.9,20.6-21.9s20.6,8.9,20.6,21.7
		C260.2,46.6,260.1,47,260.1,47.4z M223.1,44.2h33c-0.6-9.3-7.3-16-16.5-16S223.8,34.8,223.1,44.2z M273,6.7h4.1V68H273V6.7z
		 M289.8,46.4c0-12.9,9.2-21.9,21.8-21.9c6.9,0,12.8,2.6,16.3,7.9l-3.1,2.2c-3.1-4.4-7.9-6.4-13.3-6.4c-10.2,0-17.6,7.3-17.6,18.2
		s7.4,18.2,17.6,18.2c5.4,0,10.2-2.1,13.3-6.4l3.1,2.2c-3.6,5.2-9.5,7.9-16.3,7.9C299,68.3,289.8,59.2,289.8,46.4z M334.9,46.4
		c0-12.8,9.2-21.9,21.5-21.9S378,33.6,378,46.4s-9.2,21.9-21.5,21.9S334.9,59.2,334.9,46.4z M373.8,46.4c0-10.8-7.4-18.2-17.3-18.2
		s-17.3,7.3-17.3,18.2c0,10.8,7.4,18.2,17.3,18.2S373.8,57.2,373.8,46.4z M461.7,42.8V68h-4.1V43.1c0-9.7-5-14.9-13.5-14.9
		c-9.7,0-15.8,6.5-15.8,16.8v23h-4.1V43.1c0-9.7-5-14.9-13.5-14.9c-9.7,0-15.8,6.5-15.8,16.8v23h-4.1V24.8h4V34
		c2.8-6,8.7-9.6,16.5-9.6s13.5,3.6,15.8,10.4c2.8-6.3,9.1-10.4,17.4-10.4C454.9,24.5,461.7,30.7,461.7,42.8z M515.2,47.4h-37.1
		c0.4,10.2,7.9,17.2,18.2,17.2c5.5,0,10.5-2,13.8-6l2.4,2.7c-3.8,4.6-9.7,7-16.3,7c-13,0-22.2-9.1-22.2-21.9s8.8-21.9,20.6-21.9
		c11.8,0,20.6,8.9,20.6,21.7C515.2,46.6,515.2,47,515.2,47.4z M478.2,44.2h33c-0.6-9.3-7.3-16-16.5-16
		C485.5,28.1,478.8,34.8,478.2,44.2z M570.6,65.2c-2.1,2.1-5.6,3.1-8.8,3.1c-7.6,0-11.7-4.5-11.7-11.7V28.4h-7.9v-3.6h7.9v-9.4h4.1
		v9.4h13.7v3.6h-13.7v27.7c0,5.5,2.7,8.6,8,8.6c2.6,0,5-0.8,6.7-2.4L570.6,65.2z M575.9,46.4c0-12.8,9.2-21.9,21.5-21.9
		c12.4,0,21.5,9.1,21.5,21.9s-9.2,21.9-21.5,21.9C585,68.3,575.9,59.2,575.9,46.4z M614.7,46.4c0-10.8-7.4-18.2-17.3-18.2
		c-9.9,0-17.3,7.3-17.3,18.2c0,10.8,7.4,18.2,17.3,18.2C607.3,64.6,614.7,57.2,614.7,46.4z"/>
	<g>
		<path class="st2" d="M247,153.7c-1.4-1.9-2.1-4.2-2.1-7c0-3.4,1.3-6.1,4-7.9c2.7-1.9,6.5-2.8,11.4-2.8h5.4h91.8h5.4
			c4.9,0,8.7,0.9,11.4,2.8c0.1,0.1,0.2,0.2,0.3,0.2c-0.6-0.8-1.4-1.6-2.3-2.2c-2.7-1.9-6.5-2.8-11.4-2.8h-5.4h-91.8h-5.4
			c-4.9,0-8.7,0.9-11.4,2.8c-2.7,1.8-4,4.5-4,7.9C242.9,148.6,244.2,151.6,247,153.7z"/>
		<path class="st2" d="M81.2,154.1c-1.3-1.8-2-4-2-6.7c0-3.7,1.5-6.5,4.6-8.3c3.1-1.9,7.6-2.8,13.7-2.8l6.8-0.2h91.6l5.6-0.2
			l7.4,0.8c1.7,0.5,3.1,1.1,4.2,1.9c-1.3-1.8-3.4-3.2-6.2-3.9l-7.4-0.8l-5.6,0.2h-91.6l-6.8,0.2c-6.1,0-10.6,0.9-13.7,2.8
			c-3.1,1.8-4.6,4.6-4.6,8.3C77.2,149.2,78.5,152.1,81.2,154.1z"/>
		<path class="st2" d="M638.7,153.7c-1.4-1.9-2.1-4.2-2.1-7c0-3.4,1.3-6.1,4-7.9c2.7-1.9,6.5-2.8,11.4-2.8h5.4h91.8h5.4
			c4.9,0,8.7,0.9,11.4,2.8c0.1,0.1,0.2,0.2,0.3,0.2c-0.6-0.8-1.4-1.6-2.3-2.2c-2.7-1.9-6.5-2.8-11.4-2.8h-5.4h-91.8H650
			c-4.9,0-8.7,0.9-11.4,2.8c-2.7,1.8-4,4.5-4,7.9C634.6,148.6,635.9,151.6,638.7,153.7z"/>
		<path class="st2" d="M753.9,392.4c0.8,0.3,3.4,1.3,7.9,2.8c1.6,0.5,3,1.2,4.1,2.1c-1.4-1.8-3.4-3.2-6.1-4.1
			c-4.5-1.5-7.1-2.5-7.9-2.8c-0.1,0-0.1-0.1-0.2-0.1C752.4,391.3,753.2,392,753.9,392.4z"/>
		<path class="st2" d="M56.9,391.7c0.3,0.5,0.7,1,1.5,1.6c1.3,1,2.9,2,4.8,2.8c1.8,0.7,4.3,1.3,7.4,2v-1.6c-4.1-0.8-7.2-1.6-9.4-2.4
			C59.5,393.4,58.1,392.6,56.9,391.7z"/>
		<path class="st2" d="M414.1,153.7c-1.4-1.9-2.1-4.2-2.1-7c0-3.4,1.3-6.1,4-7.9s6.5-2.8,11.4-2.8h5.4h91.8h7c6,0,10.4,0.8,13,2.5
			c0.5,0.3,1,0.7,1.5,1.1c-0.9-1.1-2-2.2-3.5-3.1c-2.6-1.7-7-2.5-13-2.5h-7h-91.8h-5.4c-4.9,0-8.7,1-11.4,2.8s-4,4.5-4,7.9
			C410,148.6,411.3,151.6,414.1,153.7z"/>
		<path class="st2" d="M362.2,392.4c0.8,0.3,3.4,1.3,7.9,2.8c1.6,0.5,3,1.2,4.1,2.1c-1.4-1.8-3.4-3.2-6.1-4.1
			c-4.5-1.5-7.1-2.5-7.9-2.8c-0.1,0-0.1-0.1-0.2-0.1C360.7,391.3,361.5,392,362.2,392.4z"/>
		<path class="st2" d="M9.7,384.2c-5.1-9-7.7-18.6-7.7-28.9c0-12.5,4.3-23.2,12.9-32.1c8.6-8.9,18.8-13.4,30.8-13.4
			c10.9,0,20.3,3.7,28.1,11c-0.3-0.3-0.6-0.7-1-1c-8-8-17.7-12-29.1-12c-12,0-22.2,4.5-30.8,13.4C4.3,330.1,0,340.8,0,353.3
			c0,10.3,2.6,19.9,7.7,28.9c3,5.3,6.8,10,11.2,14.3C15.3,392.7,12.3,388.6,9.7,384.2z"/>
		<path class="st2" d="M636.6,406.3c0-5.6,2.7-9.3,8.2-11.1c4.5-1.5,7.2-2.4,7.9-2.8c0.8-0.3,1.5-1.1,2.4-2.4
			c1.6-2.2,2.5-5.7,2.5-10.5v-206c0-4.8-0.8-8.3-2.5-10.5c-0.7-1.1-1.5-1.8-2.2-2.3c0.1,0.1,0.1,0.2,0.2,0.3
			c1.7,2.2,2.5,5.7,2.5,10.5v206c0,4.8-0.9,8.3-2.5,10.5c-0.9,1.3-1.6,2.1-2.4,2.4c-0.7,0.4-3.4,1.3-7.9,2.8
			c-5.5,1.8-8.2,5.5-8.2,11.1c0,3.3,1.2,5.8,3.7,7.7C637.2,410.4,636.6,408.5,636.6,406.3z"/>
		<path class="st2" d="M412,406.3c0-5.6,2.7-9.3,8.2-11.1c4.5-1.5,7.2-2.4,7.9-2.8c0.8-0.3,1.5-1.1,2.4-2.4
			c1.6-2.2,2.5-5.7,2.5-10.5v-206c0-4.8-0.8-8.3-2.5-10.5c-0.7-1.1-1.5-1.8-2.2-2.3c0.1,0.1,0.1,0.2,0.2,0.3
			c1.7,2.2,2.5,5.7,2.5,10.5v206c0,4.8-0.9,8.3-2.5,10.5c-0.9,1.3-1.6,2.1-2.4,2.4c-0.7,0.4-3.4,1.3-7.9,2.8
			c-5.5,1.8-8.2,5.5-8.2,11.1c0,3.3,1.2,5.8,3.7,7.7C412.6,410.4,412,408.5,412,406.3z"/>
		<path class="st2" d="M541.1,393.9c6.7-1.2,12-2.6,16-4.1c3.9-1.5,7.6-3.7,11.2-6.6c5.8-4.5,11-10.8,15.9-18.7
			c4.8-8,8.7-16.8,11.7-26.6c2.2-7.5,4.2-12.5,6.1-14.9c1.9-2.4,4.6-3.6,8.1-3.6c2.3,0,4.2,0.6,5.8,1.7c-1.7-2.4-4.4-3.7-7.8-3.7
			c-3.5,0-6.2,1.2-8.1,3.6c-1.9,2.4-3.9,7.4-6.1,14.9c-3,9.8-6.9,18.6-11.7,26.6c-4.9,7.9-10.1,14.2-15.9,18.7
			c-3.6,2.9-7.3,5.1-11.2,6.6c-4,1.5-9.3,2.9-16,4.1V415h2V393.9z"/>
		<path class="st2" d="M244.9,406.3c0-5.6,2.7-9.3,8.2-11.1c4.5-1.5,7.2-2.4,7.9-2.8c0.8-0.3,1.5-1.1,2.4-2.4
			c1.6-2.2,2.5-5.7,2.5-10.5v-206c0-4.8-0.8-8.3-2.5-10.5c-0.7-1.1-1.5-1.8-2.2-2.3c0.1,0.1,0.1,0.2,0.2,0.3
			c1.7,2.2,2.5,5.7,2.5,10.5v206c0,4.8-0.9,8.3-2.5,10.5c-0.9,1.3-1.6,2.1-2.4,2.4c-0.7,0.4-3.4,1.3-7.9,2.8
			c-5.5,1.8-8.2,5.5-8.2,11.1c0,3.3,1.2,5.8,3.7,7.7C245.5,410.4,244.9,408.5,244.9,406.3z"/>
		<path class="st2" d="M91.2,398.5c1-0.7,1.6-1.2,2.1-1.4c2.7-2.1,4.7-3.7,5.9-5c1.2-1.3,2.2-2.9,3-4.8c1.5-4.6,2.3-10.4,2.3-17.4
			V175.2c0-6.7-1.6-11.1-4.6-13.2c1.7,2.4,2.6,6.2,2.6,11.2v194.7c0,7-0.8,12.8-2.3,17.4c-0.8,1.9-1.8,3.5-3,4.8
			c-1.2,1.3-3.2,2.9-5.9,5c-0.5,0.2-1.1,0.7-2.1,1.4v23.9c0.7,0,1.4,0.1,2,0.1V398.5z"/>
	</g>
</g>
</svg>
